<svg width="20" height="21" viewBox="0 0 20 21" fill="none" xmlns="http://www.w3.org/2000/svg">
<path d="M18 15.3425V9.79451C18 9.26017 17.9995 8.99286 17.9346 8.74422C17.877 8.52387 17.7825 8.31535 17.6546 8.12693C17.5102 7.9143 17.3096 7.73797 16.9074 7.38611L12.1074 3.18611C11.3608 2.53283 10.9875 2.20635 10.5674 2.08211C10.1972 1.97263 9.80261 1.97263 9.43242 2.08211C9.01261 2.20626 8.63985 2.53242 7.89436 3.18472L3.09277 7.38611C2.69064 7.73798 2.49004 7.9143 2.3457 8.12693C2.21779 8.31536 2.12255 8.52387 2.06497 8.74422C2 8.99286 2 9.26017 2 9.79451V15.3425C2 16.2743 2 16.7401 2.15224 17.1076C2.35523 17.5977 2.74432 17.9875 3.23438 18.1905C3.60192 18.3427 4.06786 18.3427 4.99974 18.3427C5.93163 18.3427 6.39808 18.3427 6.76562 18.1905C7.25568 17.9875 7.64467 17.5978 7.84766 17.1077C7.9999 16.7402 8 16.2742 8 15.3424V14.3424C8 13.2378 8.89543 12.3424 10 12.3424C11.1046 12.3424 12 13.2378 12 14.3424V15.3424C12 16.2742 12 16.7402 12.1522 17.1077C12.3552 17.5978 12.7443 17.9875 13.2344 18.1905C13.6019 18.3427 14.0679 18.3427 14.9997 18.3427C15.9316 18.3427 16.3981 18.3427 16.7656 18.1905C17.2557 17.9875 17.6447 17.5977 17.8477 17.1076C17.9999 16.7401 18 16.2743 18 15.3425Z" stroke="white" stroke-linecap="round" stroke-linejoin="round"/>
</svg>
